<svg width="24" height="24" viewBox="0 0 24 24" fill="none" xmlns="http://www.w3.org/2000/svg">
<path fill-rule="evenodd" clip-rule="evenodd" d="M18.7179 5.28306C18.8584 5.42369 18.9373 5.61431 18.9373 5.81306C18.9373 6.01181 18.8584 6.20244 18.7179 6.34306L13.0599 12.0001L18.7169 17.6571C18.8535 17.7986 18.929 17.9881 18.9272 18.1847C18.9254 18.3814 18.8464 18.5694 18.7073 18.7084C18.5682 18.8474 18.38 18.9262 18.1834 18.9278C17.9867 18.9294 17.7973 18.8537 17.6559 18.7171L11.9999 13.0621L6.34293 18.7191C6.27371 18.7907 6.19092 18.8478 6.0994 18.887C6.00788 18.9263 5.90946 18.9469 5.80987 18.9477C5.71029 18.9486 5.61154 18.9295 5.51938 18.8918C5.42723 18.854 5.34352 18.7983 5.27313 18.7278C5.20274 18.6574 5.14709 18.5736 5.10943 18.4814C5.07176 18.3893 5.05283 18.2905 5.05374 18.1909C5.05465 18.0913 5.07539 17.9929 5.11474 17.9014C5.15409 17.8099 5.21126 17.7272 5.28293 17.6581L10.9379 12.0001L5.28193 6.34306C5.14537 6.20154 5.06987 6.01206 5.07167 5.81541C5.07347 5.61876 5.15243 5.43069 5.29156 5.2917C5.43068 5.15271 5.61883 5.07392 5.81548 5.0723C6.01212 5.07069 6.20154 5.14637 6.34293 5.28306L11.9999 10.9391L17.6569 5.28306C17.7976 5.14261 17.9882 5.06372 18.1869 5.06372C18.3857 5.06372 18.5763 5.14261 18.7169 5.28306H18.7179Z" fill="#A3A7BC"/>
</svg>
