<svg width="24" height="24" viewBox="0 0 24 24" fill="none" xmlns="http://www.w3.org/2000/svg">
<path fill-rule="evenodd" clip-rule="evenodd" d="M14.5549 15.969C13.0974 17.0686 11.2771 17.5743 9.46128 17.3841C7.64548 17.194 5.96939 16.3222 4.77125 14.9446C3.57311 13.567 2.94211 11.7862 3.00558 9.96163C3.06906 8.137 3.82229 6.40438 5.11328 5.1134C6.40426 3.82242 8.13688 3.06919 9.9615 3.00571C11.7861 2.94223 13.5669 3.57323 14.9445 4.77137C16.3221 5.96952 17.1939 7.6456 17.384 9.4614C17.5741 11.2772 17.0684 13.0975 15.9689 14.555L20.7049 19.291C20.8926 19.4785 20.998 19.7329 20.9981 19.9982C20.9982 20.2635 20.8929 20.5179 20.7054 20.7055C20.5179 20.8932 20.2635 20.9986 19.9983 20.9987C19.733 20.9988 19.4786 20.8935 19.2909 20.706L14.5549 15.969ZM15.9229 10.211C15.9229 10.9611 15.7752 11.7038 15.4882 12.3967C15.2011 13.0897 14.7804 13.7193 14.2501 14.2497C13.7197 14.78 13.0901 15.2007 12.3971 15.4878C11.7042 15.7748 10.9615 15.9225 10.2114 15.9225C9.46137 15.9225 8.71867 15.7748 8.02572 15.4878C7.33277 15.2007 6.70314 14.78 6.17278 14.2497C5.64242 13.7193 5.22171 13.0897 4.93468 12.3967C4.64765 11.7038 4.49992 10.9611 4.49992 10.211C4.49992 8.69626 5.10166 7.24351 6.17278 6.1724C7.24389 5.10129 8.69664 4.49954 10.2114 4.49954C11.7262 4.49954 13.1789 5.10129 14.2501 6.1724C15.3212 7.24351 15.9229 8.69626 15.9229 10.211Z" fill="#1E222E"/>
</svg>
