<svg width="16" height="16" viewBox="0 0 16 16" fill="none" xmlns="http://www.w3.org/2000/svg">
<path fill-rule="evenodd" clip-rule="evenodd" d="M7.44434 3.22192C7.35059 3.12828 7.22351 3.07569 7.09101 3.07569C6.95851 3.07569 6.83142 3.12828 6.73767 3.22192L2.31301 7.64658C2.21937 7.74033 2.16678 7.86741 2.16678 7.99992C2.16678 8.13242 2.21937 8.2595 2.31301 8.35325L6.73767 12.7779C6.83246 12.8662 6.95782 12.9143 7.08736 12.912C7.21689 12.9097 7.34048 12.8573 7.43209 12.7657C7.5237 12.6741 7.57617 12.5505 7.57846 12.4209C7.58074 12.2914 7.53266 12.166 7.44434 12.0712L3.87367 8.49992H13.333C13.4656 8.49992 13.5928 8.44724 13.6866 8.35347C13.7803 8.2597 13.833 8.13252 13.833 7.99992C13.833 7.86731 13.7803 7.74013 13.6866 7.64636C13.5928 7.55259 13.4656 7.49992 13.333 7.49992L3.87301 7.49992L7.44434 3.92858C7.53797 3.83483 7.59057 3.70775 7.59057 3.57525C7.59057 3.44275 7.53797 3.31567 7.44434 3.22192Z" fill="#AEAEAE"/>
</svg>
