<svg width="24" height="24" viewBox="0 0 24 24" fill="none" xmlns="http://www.w3.org/2000/svg">
<path fill-rule="evenodd" clip-rule="evenodd" d="M21.52 18.947C21.17 20.025 20.996 20.564 20.537 21.053C20.302 21.303 19.938 21.568 19.627 21.714C19.02 22 18.357 22 17.033 22H4.2C3.545 22 3.218 22 2.977 21.853C2.84251 21.7705 2.72943 21.6575 2.647 21.523C2.5 21.283 2.5 20.955 2.5 20.3V11.054C2.5 10.399 2.5 10.072 2.647 9.83097C2.72943 9.69649 2.84251 9.58341 2.977 9.50097C3.218 9.35397 3.545 9.35397 4.2 9.35397H6.5C9.537 9.35397 10.268 4.82697 10.444 2.64697C10.507 1.86297 10.741 1.32197 11.626 1.28197C12.481 1.24397 13.651 1.47597 14.5 2.74997C15.848 4.77197 15.52 6.40697 15.042 8.79297C15.013 8.93497 15.059 8.99997 15.207 8.99997H17.521C19.429 8.99997 20.383 8.99997 21.118 9.46497C21.5239 9.73044 21.8641 10.0847 22.113 10.501C22.547 11.254 22.513 12.1 22.443 13.791C22.3812 15.5447 22.0704 17.2807 21.52 18.947ZM13.956 5.67697C13.977 6.43297 13.818 7.26697 13.57 8.50397C13.515 8.74666 13.5161 8.9987 13.5732 9.24089C13.6304 9.48308 13.742 9.70904 13.8997 9.90154C14.0574 10.094 14.2569 10.248 14.4831 10.3517C14.7093 10.4554 14.9562 10.5061 15.205 10.5C15.977 10.494 16.749 10.5 17.521 10.5C18.506 10.5 19.131 10.502 19.607 10.55C20.051 10.596 20.218 10.67 20.316 10.732C20.495 10.846 20.707 11.067 20.813 11.251C20.981 11.542 21.02 11.868 20.944 13.731C20.8881 15.348 20.6019 16.9488 20.094 18.485C19.715 19.651 19.628 19.83 19.444 20.026C19.31 20.1592 19.1562 20.2708 18.988 20.357C18.753 20.467 18.488 20.5 17.033 20.5C13.689 20.5 10.344 20.508 7 20.505V10.827C9.135 10.591 10.318 8.86297 10.93 7.39397C11.603 5.77697 11.845 3.92197 11.938 2.78397C13.302 2.87397 13.923 4.49097 13.956 5.67697ZM6 10.853V20.504C5.333 20.504 4.667 20.502 4 20.5C3.99 17.285 3.99 14.069 4 10.854C4.667 10.852 5.333 10.853 6 10.854V10.853Z" fill="white"/>
</svg>
