<svg width="16" height="16" viewBox="0 0 16 16" fill="none" xmlns="http://www.w3.org/2000/svg">
<path fill-rule="evenodd" clip-rule="evenodd" d="M8.55566 12.7781C8.64941 12.8717 8.77649 12.9243 8.90899 12.9243C9.04149 12.9243 9.16858 12.8717 9.26233 12.7781L13.687 8.35342C13.7806 8.25967 13.8332 8.13259 13.8332 8.00008C13.8332 7.86758 13.7806 7.7405 13.687 7.64675L9.26233 3.22209C9.16754 3.13377 9.04218 3.08568 8.91264 3.08797C8.78311 3.09025 8.65952 3.14273 8.56791 3.23434C8.4763 3.32595 8.42383 3.44954 8.42154 3.57907C8.41926 3.7086 8.46734 3.83397 8.55566 3.92875L12.1263 7.50008H2.66699C2.53438 7.50008 2.40721 7.55276 2.31344 7.64653C2.21967 7.7403 2.16699 7.86748 2.16699 8.00008C2.16699 8.13269 2.21967 8.25987 2.31344 8.35364C2.40721 8.44741 2.53438 8.50008 2.66699 8.50008H12.127L8.55566 12.0714C8.46203 12.1652 8.40943 12.2923 8.40943 12.4248C8.40943 12.5573 8.46203 12.6843 8.55566 12.7781Z" fill="#1E222E"/>
</svg>
