<svg width="66" height="20" viewBox="0 0 66 20" fill="none" xmlns="http://www.w3.org/2000/svg">
<g clip-path="url(#clip0_2_3081)">
<path d="M62.9246 17.4151C64.2194 17.4151 65.1366 17.1698 65.82 16.6415V14.2453C65.1186 14.7547 64.2734 15.0755 63.0864 15.0755C61.0903 15.0755 60.263 13.4528 60.263 10.8868C60.263 8.18868 61.2701 6.81132 63.1044 6.81132C64.1834 6.81132 65.2445 7.20754 65.802 7.5849V5.09434C65.2085 4.75471 64.1834 4.50943 62.7807 4.50943C59.202 4.50943 57.3497 7.20754 57.3497 10.9811C57.3676 15.1132 59.184 17.4151 62.9246 17.4151ZM45.4265 16.3208V13.9245C44.5633 14.5472 43.0886 15.0943 41.7398 15.0943C39.6897 15.0943 38.9164 14.0755 38.7905 12H45.5524V10.4528C45.5524 6.13207 43.736 4.50943 40.9486 4.50943C37.5317 4.50943 35.9131 7.24528 35.9131 11C35.9131 15.3208 37.9453 17.4151 41.5061 17.4151C43.2864 17.4151 44.5992 16.9057 45.4265 16.3208ZM19.7638 4.73585V9.64151H16.0232V4.73585H13.2178V17.1698H16.0232V11.9811H19.7638V17.1698H22.5693V4.73585H19.7638ZM35.2118 14.8302H33.9709V4.73585H25.8063V5.79245C25.8063 8.83018 25.6265 12.7547 24.6374 14.8302H23.7382V20H26.3279V17.1698H32.6042V20H35.1938V14.8302H35.2118ZM54.3644 17.1698H57.5475L53.0516 10.4717L57.008 4.73585H54.1845L50.2281 10.4717V4.73585H47.4227V17.1698H50.2281V11.0566L54.3644 17.1698ZM40.8766 6.81132C42.2614 6.81132 42.693 8.01886 42.693 9.5849V9.83018H38.7905C38.8625 7.84905 39.5458 6.81132 40.8766 6.81132ZM31.1655 14.8302H27.2091C27.9824 12.9623 28.1982 9.56603 28.1982 7.41509V7.03773H31.1655V14.8302Z" fill="black"/>
<path d="M10.8801 17.1698H8.02071V2.32075H6.74387C4.40599 2.32075 3.18311 3.54717 3.18311 5.37736C3.18311 7.45283 4.02834 8.41509 5.77275 9.64151L7.21144 10.6604L3.0752 17.1698H0L3.72262 11.3585C1.58256 9.75472 0.377657 8.18868 0.377657 5.54717C0.377657 2.24528 2.57166 0 6.72589 0H10.8621V17.1698H10.8801Z" fill="#FC3F1D"/>
</g>
<defs>
<clipPath id="clip0_2_3081">
<rect width="66" height="20" fill="white"/>
</clipPath>
</defs>
</svg>
